RBDS024runT25_grf
version=1
nRows=37
nColumns=19
inDegrees=no
endheader
time	ground_force_r_vx	ground_force_r_vy	ground_force_r_vz	ground_force_r_px	ground_force_r_py	ground_force_r_pz	ground_force_r_mx	ground_force_r_my	ground_force_r_mz	ground_force_l_vx	ground_force_l_vy	ground_force_l_vz	ground_force_l_px	ground_force_l_py	ground_force_l_pz	ground_force_l_mx	ground_force_l_my	ground_force_l_mz
     14.99900000	     57.00822743	   1689.19418050	    -33.37809254	      2.05401302	      0.00000000	      1.02811982	     -0.00000000	     10.58205859	      0.00000000	      0.00000000	      0.00000000	      0.00000000	      0.00000000	      0.00000000	      0.00000000	      0.00000000	      0.00000000	      0.00000000
     15.00000000	     60.33105865	   1678.75371576	    -33.08008687	      2.05207198	      0.00000000	      1.02808273	     -0.00000000	     10.48623770	      0.00000000	      0.00000000	      0.00000000	      0.00000000	      0.00000000	      0.00000000	      0.00000000	      0.00000000	      0.00000000	      0.00000000
     15.00100000	     63.60527326	   1667.55804162	    -32.63431942	      2.05012185	      0.00000000	      1.02803263	     -0.00000000	     10.39274071	      0.00000000	      0.00000000	      0.00000000	      0.00000000	      0.00000000	      0.00000000	      0.00000000	      0.00000000	      0.00000000	      0.00000000
     15.00200000	     66.87948787	   1656.36236747	    -32.18855197	      2.04817172	      0.00000000	      1.02798253	     -0.00000000	     10.29924372	      0.00000000	      0.00000000	      0.00000000	      0.00000000	      0.00000000	      0.00000000	      0.00000000	      0.00000000	      0.00000000	      0.00000000
     15.00300000	     70.15370248	   1645.16669333	    -31.74278452	      2.04622159	      0.00000000	      1.02793242	     -0.00000000	     10.20574673	      0.00000000	      0.00000000	      0.00000000	      0.00000000	      0.00000000	      0.00000000	      0.00000000	      0.00000000	      0.00000000	      0.00000000
     15.00400000	     73.38919480	   1633.49791698	    -31.19929025	      2.04426327	      0.00000000	      1.02787301	     -0.00000000	     10.11408785	      0.00000000	      0.00000000	      0.00000000	      0.00000000	      0.00000000	      0.00000000	      0.00000000	      0.00000000	      0.00000000	      0.00000000
     15.00500000	     76.60532598	   1621.59258952	    -30.60693257	      2.04230084	      0.00000000	      1.02780895	     -0.00000000	     10.02334803	      0.00000000	      0.00000000	      0.00000000	      0.00000000	      0.00000000	      0.00000000	      0.00000000	      0.00000000	      0.00000000	      0.00000000
     15.00600000	     79.82145716	   1609.68726207	    -30.01457488	      2.04033842	      0.00000000	      1.02774489	     -0.00000000	      9.93260821	      0.00000000	      0.00000000	      0.00000000	      0.00000000	      0.00000000	      0.00000000	      0.00000000	      0.00000000	      0.00000000	      0.00000000
     15.00700000	     83.01374019	   1597.55970728	    -29.37526486	      2.03837096	      0.00000000	      1.02767596	     -0.00000000	      9.84286029	      0.00000000	      0.00000000	      0.00000000	      0.00000000	      0.00000000	      0.00000000	      0.00000000	      0.00000000	      0.00000000	      0.00000000
     15.00800000	     86.15832690	   1584.98769782	    -28.64205016	      2.03639345	      0.00000000	      1.02759729	     -0.00000000	      9.75509615	      0.00000000	      0.00000000	      0.00000000	      0.00000000	      0.00000000	      0.00000000	      0.00000000	      0.00000000	      0.00000000	      0.00000000
     15.00900000	     89.30291362	   1572.41568835	    -27.90883547	      2.03441594	      0.00000000	      1.02751862	     -0.00000000	      9.66733202	      0.00000000	      0.00000000	      0.00000000	      0.00000000	      0.00000000	      0.00000000	      0.00000000	      0.00000000	      0.00000000	      0.00000000
     15.01000000	     92.44750033	   1559.84367889	    -27.17562077	      2.03243843	      0.00000000	      1.02743995	      0.00000000	      9.57956788	      0.00000000	      0.00000000	      0.00000000	      0.00000000	      0.00000000	      0.00000000	      0.00000000	      0.00000000	      0.00000000	      0.00000000
     15.01100000	     95.50329001	   1546.64603530	    -26.31164325	      2.03044353	      0.00000000	      1.02734635	      0.00000000	      9.49480629	      0.00000000	      0.00000000	      0.00000000	      0.00000000	      0.00000000	      0.00000000	      0.00000000	      0.00000000	      0.00000000	      0.00000000
     15.01200000	     98.55907969	   1533.44839172	    -25.44766572	      2.02844863	      0.00000000	      1.02725274	      0.00000000	      9.41004470	      0.00000000	      0.00000000	      0.00000000	      0.00000000	      0.00000000	      0.00000000	      0.00000000	      0.00000000	      0.00000000	      0.00000000
     15.01300000	    101.61486937	   1520.25074813	    -24.58368820	      2.02645373	      0.00000000	      1.02715913	      0.00000000	      9.32528311	      0.00000000	      0.00000000	      0.00000000	      0.00000000	      0.00000000	      0.00000000	      0.00000000	      0.00000000	      0.00000000	      0.00000000
     15.01400000	    104.59771330	   1506.66268627	    -23.64192267	      2.02444607	      0.00000000	      1.02705560	      0.00000000	      9.24243243	      0.00000000	      0.00000000	      0.00000000	      0.00000000	      0.00000000	      0.00000000	      0.00000000	      0.00000000	      0.00000000	      0.00000000
     15.01500000	    107.54408434	   1492.87941528	    -22.66126313	      2.02243204	      0.00000000	      1.02694710	      0.00000000	      9.16053721	      0.00000000	      0.00000000	      0.00000000	      0.00000000	      0.00000000	      0.00000000	      0.00000000	      0.00000000	      0.00000000	      0.00000000
     15.01600000	    110.49045539	   1479.09614428	    -21.68060360	      2.02041800	      0.00000000	      1.02683861	      0.00000000	      9.07864198	      0.00000000	      0.00000000	      0.00000000	      0.00000000	      0.00000000	      0.00000000	      0.00000000	      0.00000000	      0.00000000	      0.00000000
     15.01700000	    113.39255888	   1465.13099070	    -20.66689846	      2.01839720	      0.00000000	      1.02672531	      0.00000000	      8.99761318	      0.00000000	      0.00000000	      0.00000000	      0.00000000	      0.00000000	      0.00000000	      0.00000000	      0.00000000	      0.00000000	      0.00000000
     15.01800000	    116.20612724	   1450.80207194	    -19.58710210	      2.01636288	      0.00000000	      1.02660238	      0.00000000	      8.91831722	      0.00000000	      0.00000000	      0.00000000	      0.00000000	      0.00000000	      0.00000000	      0.00000000	      0.00000000	      0.00000000	      0.00000000
     15.01900000	    119.01969559	   1436.47315319	    -18.50730575	      2.01432855	      0.00000000	      1.02647946	      0.00000000	      8.83902126	      0.00000000	      0.00000000	      0.00000000	      0.00000000	      0.00000000	      0.00000000	      0.00000000	      0.00000000	      0.00000000	      0.00000000
     15.02000000	    121.83326395	   1422.14423443	    -17.42750940	      2.01229423	      0.00000000	      1.02635653	      0.00000000	      8.75972530	      0.00000000	      0.00000000	      0.00000000	      0.00000000	      0.00000000	      0.00000000	      0.00000000	      0.00000000	      0.00000000	      0.00000000
     15.02100000	    124.48863402	   1407.31067954	    -16.26894756	      2.01023909	      0.00000000	      1.02622008	      0.00000000	      8.68266451	      0.00000000	      0.00000000	      0.00000000	      0.00000000	      0.00000000	      0.00000000	      0.00000000	      0.00000000	      0.00000000	      0.00000000
     15.02200000	    127.14400408	   1392.47712465	    -15.11038572	      2.00818395	      0.00000000	      1.02608363	      0.00000000	      8.60560373	      0.00000000	      0.00000000	      0.00000000	      0.00000000	      0.00000000	      0.00000000	      0.00000000	      0.00000000	      0.00000000	      0.00000000
     15.02300000	    129.79937415	   1377.64356976	    -13.95182388	      2.00612882	      0.00000000	      1.02594718	      0.00000000	      8.52854294	      0.00000000	      0.00000000	      0.00000000	      0.00000000	      0.00000000	      0.00000000	      0.00000000	      0.00000000	      0.00000000	      0.00000000
     15.02400000	    132.33157636	   1362.50230220	    -12.75573716	      2.00405989	      0.00000000	      1.02580262	      0.00000000	      8.45268774	      0.00000000	      0.00000000	      0.00000000	      0.00000000	      0.00000000	      0.00000000	      0.00000000	      0.00000000	      0.00000000	      0.00000000
     15.02500000	    134.80219464	   1347.20717831	    -11.54088798	      2.00198407	      0.00000000	      1.02565401	      0.00000000	      8.37743533	      0.00000000	      0.00000000	      0.00000000	      0.00000000	      0.00000000	      0.00000000	      0.00000000	      0.00000000	      0.00000000	      0.00000000
     15.02600000	    137.27281292	   1331.91205442	    -10.32603881	      1.99990824	      0.00000000	      1.02550540	      0.00000000	      8.30218291	      0.00000000	      0.00000000	      0.00000000	      0.00000000	      0.00000000	      0.00000000	      0.00000000	      0.00000000	      0.00000000	      0.00000000
     15.02700000	    139.67291511	   1316.47842070	     -9.10036717	      1.99782578	      0.00000000	      1.02535334	      0.00000000	      8.22738111	      0.00000000	      0.00000000	      0.00000000	      0.00000000	      0.00000000	      0.00000000	      0.00000000	      0.00000000	      0.00000000	      0.00000000
     15.02800000	    141.93198511	   1300.76776735	     -7.85305059	      1.99573005	      0.00000000	      1.02519440	      0.00000000	      8.15348054	      0.00000000	      0.00000000	      0.00000000	      0.00000000	      0.00000000	      0.00000000	      0.00000000	      0.00000000	      0.00000000	      0.00000000
     15.02900000	    144.19105512	   1285.05711399	     -6.60573401	      1.99363432	      0.00000000	      1.02503546	      0.00000000	      8.07957996	      0.00000000	      0.00000000	      0.00000000	      0.00000000	      0.00000000	      0.00000000	      0.00000000	      0.00000000	      0.00000000	      0.00000000
     15.03000000	    146.45012512	   1269.34646063	     -5.35841743	      1.99153859	      0.00000000	      1.02487652	      0.00000000	      8.00567938	      0.00000000	      0.00000000	      0.00000000	      0.00000000	      0.00000000	      0.00000000	      0.00000000	      0.00000000	      0.00000000	      0.00000000
     15.03100000	    148.47154433	   1253.27004025	     -4.10301785	      1.98942439	      0.00000000	      1.02470955	      0.00000000	      7.93267436	      0.00000000	      0.00000000	      0.00000000	      0.00000000	      0.00000000	      0.00000000	      0.00000000	      0.00000000	      0.00000000	      0.00000000
     15.03200000	    150.49296354	   1237.19361987	     -2.84761828	      1.98731019	      0.00000000	      1.02454259	      0.00000000	      7.85966934	      0.00000000	      0.00000000	      0.00000000	      0.00000000	      0.00000000	      0.00000000	      0.00000000	      0.00000000	      0.00000000	      0.00000000
     15.03300000	    152.51438274	   1221.11719949	     -1.59221871	      1.98519599	      0.00000000	      1.02437563	      0.00000000	      7.78666432	      0.00000000	      0.00000000	      0.00000000	      0.00000000	      0.00000000	      0.00000000	      0.00000000	      0.00000000	      0.00000000	      0.00000000
     15.03400000	    154.36104456	   1204.83294922	     -0.34755701	      1.98307086	      0.00000000	      1.02420515	      0.00000000	      7.71396912	      0.00000000	      0.00000000	      0.00000000	      0.00000000	      0.00000000	      0.00000000	      0.00000000	      0.00000000	      0.00000000	      0.00000000
     15.03500000	    156.12032767	   1188.44478400	      0.89173574	      1.98094027	      0.00000000	      1.02403292	      0.00000000	      7.64142885	      0.00000000	      0.00000000	      0.00000000	      0.00000000	      0.00000000	      0.00000000	      0.00000000	      0.00000000	      0.00000000	      0.00000000
